# MagicaVoxel @ Ephtracy

# group
o 

# material
mtllib FishProto.mtl
usemtl palette

# normals
vn -1 0 0
vn 1 0 0
vn 0 0 1
vn 0 0 -1
vn 0 -1 0
vn 0 1 0

# texcoords
vt 0.0605469 0.5
vt 0.0917969 0.5
vt 0.958984 0.5
vt 0.994141 0.5

# verts
v -0.6 0.2 0.1
v -0.6 0.2 -0.2
v -0.6 0.3 0
v -0.6 0.3 -0.1
v -0.6 0.4 0
v -0.6 0.4 -0.1
v -0.6 0.5 0.1
v -0.6 0.5 -0.2
v -0.5 0.3 0
v -0.5 0.3 -0.1
v -0.5 0.4 0
v -0.5 0.4 -0.1
v -0.5 0.5 0.1
v -0.5 0.5 -0.2
v -0.5 0.6 0.1
v -0.5 0.6 -0.2
v -0.3 0.1 0
v -0.3 0.1 -0.1
v -0.3 0.2 0
v -0.3 0.2 -0.1
v -0.3 0.6 0.1
v -0.3 0.6 -0.2
v -0.3 0.7 0.1
v -0.3 0.7 -0.2
v -0.2 0 0
v -0.2 0 -0.1
v -0.2 0.1 0
v -0.2 0.1 -0.1
v -0.2 0.7 0
v -0.2 0.7 -0.1
v -0.2 0.8 0
v -0.2 0.8 -0.1
v -0.1 0.4 0.3
v -0.1 0.4 0.1
v -0.1 0.4 -0.2
v -0.1 0.4 -0.4
v -0.1 0.5 0.3
v -0.1 0.5 0.1
v -0.1 0.5 -0.2
v -0.1 0.5 -0.4
v 0.4 0.3 0
v 0.4 0.3 -0.1
v 0.4 0.4 0
v 0.4 0.4 -0.1
v 0.4 0.5 0
v 0.4 0.5 -0.1
v 0.4 0.6 0
v 0.4 0.6 -0.1
v 0.5 0.2 0
v 0.5 0.2 -0.1
v 0.5 0.3 0
v 0.5 0.3 -0.1
v 0.5 0.6 0
v 0.5 0.6 -0.1
v 0.5 0.7 0
v 0.5 0.7 -0.1
v -5.96046e-08 0.1 0
v -5.96046e-08 0.1 -0.1
v -5.96046e-08 0.2 0
v -5.96046e-08 0.2 -0.1
v -5.96046e-08 0.6 0.1
v -5.96046e-08 0.6 0
v -5.96046e-08 0.6 -0.1
v -5.96046e-08 0.6 -0.2
v -5.96046e-08 0.7 0.1
v -5.96046e-08 0.7 0
v -5.96046e-08 0.7 -0.1
v -5.96046e-08 0.7 -0.2
v 0.1 0 0
v 0.1 0 -0.1
v 0.1 0.1 0
v 0.1 0.1 -0.1
v 0.1 0.2 0.1
v 0.1 0.2 0
v 0.1 0.2 -0.1
v 0.1 0.2 -0.2
v 0.1 0.3 0.1
v 0.1 0.3 0
v 0.1 0.3 -0.1
v 0.1 0.3 -0.2
v 0.1 0.4 0.2
v 0.1 0.4 0.1
v 0.1 0.4 -0.2
v 0.1 0.4 -0.3
v 0.1 0.5 0.2
v 0.1 0.5 0.1
v 0.1 0.5 -0.2
v 0.1 0.5 -0.3
v 0.1 0.6 0
v 0.1 0.6 -0.1
v 0.1 0.7 0
v 0.1 0.7 -0.1
v 0.2 0.2 0
v 0.2 0.2 -0.1
v 0.2 0.3 0.1
v 0.2 0.3 0
v 0.2 0.3 -0.1
v 0.2 0.3 -0.2
v 0.2 0.4 0.3
v 0.2 0.4 0.2
v 0.2 0.4 0.1
v 0.2 0.4 0
v 0.2 0.4 -0.1
v 0.2 0.4 -0.2
v 0.2 0.4 -0.3
v 0.2 0.4 -0.4
v 0.2 0.5 0.3
v 0.2 0.5 0.2
v 0.2 0.5 0.1
v 0.2 0.5 0
v 0.2 0.5 -0.1
v 0.2 0.5 -0.2
v 0.2 0.5 -0.3
v 0.2 0.5 -0.4
v 0.2 0.6 0.1
v 0.2 0.6 0
v 0.2 0.6 -0.1
v 0.2 0.6 -0.2
v 0.2 0.7 0
v 0.2 0.7 -0.1
v 0.2 0.8 0
v 0.2 0.8 -0.1
v 0.3 0.3 0
v 0.3 0.3 -0.1
v 0.3 0.4 0.1
v 0.3 0.4 0
v 0.3 0.4 -0.1
v 0.3 0.4 -0.2
v 0.3 0.5 0.1
v 0.3 0.5 0
v 0.3 0.5 -0.1
v 0.3 0.5 -0.2
v 0.3 0.6 0
v 0.3 0.6 -0.1
v 0.6 0.2 0
v 0.6 0.2 -0.1
v 0.6 0.7 0
v 0.6 0.7 -0.1
v -0.1 0.4 0.3
v -0.1 0.5 0.3
v 0.2 0.4 0.3
v 0.2 0.5 0.3
v -0.6 0.2 0.1
v -0.6 0.5 0.1
v -0.5 0.2 0.1
v -0.5 0.5 0.1
v -0.5 0.6 0.1
v -0.4 0.3 0.1
v -0.4 0.4 0.1
v -0.4 0.5 0.1
v -0.3 0.4 0.1
v -0.3 0.5 0.1
v -0.3 0.6 0.1
v -0.3 0.7 0.1
v -0.2 0.3 0.1
v -0.2 0.5 0.1
v -0.1 0.4 0.1
v -0.1 0.5 0.1
v -5.96046e-08 0.6 0.1
v -5.96046e-08 0.7 0.1
v 0.1 0.2 0.1
v 0.1 0.3 0.1
v 0.1 0.4 0.1
v 0.1 0.5 0.1
v 0.2 0.3 0.1
v 0.2 0.4 0.1
v 0.2 0.5 0.1
v 0.2 0.6 0.1
v 0.3 0.4 0.1
v 0.3 0.5 0.1
v -0.3 0.1 0
v -0.3 0.2 0
v -0.2 0 0
v -0.2 0.1 0
v -0.2 0.7 0
v -0.2 0.8 0
v -5.96046e-08 0.1 0
v -5.96046e-08 0.2 0
v -5.96046e-08 0.6 0
v -5.96046e-08 0.7 0
v 0.1 0 0
v 0.1 0.1 0
v 0.1 0.2 0
v 0.1 0.3 0
v 0.1 0.6 0
v 0.1 0.7 0
v 0.2 0.2 0
v 0.2 0.3 0
v 0.2 0.4 0
v 0.2 0.5 0
v 0.2 0.6 0
v 0.2 0.7 0
v 0.2 0.8 0
v 0.3 0.3 0
v 0.3 0.4 0
v 0.3 0.5 0
v 0.3 0.6 0
v 0.4 0.3 0
v 0.4 0.4 0
v 0.4 0.5 0
v 0.4 0.6 0
v 0.5 0.2 0
v 0.5 0.3 0
v 0.5 0.6 0
v 0.5 0.7 0
v 0.6 0.2 0
v 0.6 0.7 0
v -0.6 0.3 -0.1
v -0.6 0.4 -0.1
v -0.5 0.3 -0.1
v -0.5 0.4 -0.1
v 0.1 0.4 -0.3
v 0.1 0.5 -0.3
v 0.2 0.4 -0.3
v 0.2 0.5 -0.3
v 0.1 0.4 0.2
v 0.1 0.5 0.2
v 0.2 0.4 0.2
v 0.2 0.5 0.2
v -0.6 0.3 0
v -0.6 0.4 0
v -0.5 0.3 0
v -0.5 0.4 0
v -0.3 0.1 -0.1
v -0.3 0.2 -0.1
v -0.2 0 -0.1
v -0.2 0.1 -0.1
v -0.2 0.7 -0.1
v -0.2 0.8 -0.1
v -5.96046e-08 0.1 -0.1
v -5.96046e-08 0.2 -0.1
v -5.96046e-08 0.6 -0.1
v -5.96046e-08 0.7 -0.1
v 0.1 0 -0.1
v 0.1 0.1 -0.1
v 0.1 0.2 -0.1
v 0.1 0.3 -0.1
v 0.1 0.6 -0.1
v 0.1 0.7 -0.1
v 0.2 0.2 -0.1
v 0.2 0.3 -0.1
v 0.2 0.4 -0.1
v 0.2 0.5 -0.1
v 0.2 0.6 -0.1
v 0.2 0.7 -0.1
v 0.2 0.8 -0.1
v 0.3 0.3 -0.1
v 0.3 0.4 -0.1
v 0.3 0.5 -0.1
v 0.3 0.6 -0.1
v 0.4 0.3 -0.1
v 0.4 0.4 -0.1
v 0.4 0.5 -0.1
v 0.4 0.6 -0.1
v 0.5 0.2 -0.1
v 0.5 0.3 -0.1
v 0.5 0.6 -0.1
v 0.5 0.7 -0.1
v 0.6 0.2 -0.1
v 0.6 0.7 -0.1
v -0.6 0.2 -0.2
v -0.6 0.5 -0.2
v -0.5 0.2 -0.2
v -0.5 0.5 -0.2
v -0.5 0.6 -0.2
v -0.4 0.3 -0.2
v -0.4 0.4 -0.2
v -0.4 0.5 -0.2
v -0.3 0.4 -0.2
v -0.3 0.5 -0.2
v -0.3 0.6 -0.2
v -0.3 0.7 -0.2
v -0.2 0.3 -0.2
v -0.2 0.5 -0.2
v -0.1 0.4 -0.2
v -0.1 0.5 -0.2
v -5.96046e-08 0.6 -0.2
v -5.96046e-08 0.7 -0.2
v 0.1 0.2 -0.2
v 0.1 0.3 -0.2
v 0.1 0.4 -0.2
v 0.1 0.5 -0.2
v 0.2 0.3 -0.2
v 0.2 0.4 -0.2
v 0.2 0.5 -0.2
v 0.2 0.6 -0.2
v 0.3 0.4 -0.2
v 0.3 0.5 -0.2
v -0.1 0.4 -0.4
v -0.1 0.5 -0.4
v 0.2 0.4 -0.4
v 0.2 0.5 -0.4
v -0.2 0 0
v 0.1 0 0
v -0.2 0 -0.1
v 0.1 0 -0.1
v -0.3 0.1 0
v -0.2 0.1 0
v -0.3 0.1 -0.1
v -0.2 0.1 -0.1
v -0.6 0.2 0.1
v -0.5 0.2 0.1
v 0.1 0.2 0.1
v -0.3 0.2 0
v -5.96046e-08 0.2 0
v 0.1 0.2 0
v 0.2 0.2 0
v 0.5 0.2 0
v 0.6 0.2 0
v -0.3 0.2 -0.1
v -5.96046e-08 0.2 -0.1
v 0.1 0.2 -0.1
v 0.2 0.2 -0.1
v 0.5 0.2 -0.1
v 0.6 0.2 -0.1
v -0.6 0.2 -0.2
v -0.5 0.2 -0.2
v 0.1 0.2 -0.2
v 0.1 0.3 0.1
v 0.2 0.3 0.1
v 0.1 0.3 0
v 0.2 0.3 0
v 0.3 0.3 0
v 0.4 0.3 0
v 0.5 0.3 0
v 0.1 0.3 -0.1
v 0.2 0.3 -0.1
v 0.3 0.3 -0.1
v 0.4 0.3 -0.1
v 0.5 0.3 -0.1
v 0.1 0.3 -0.2
v 0.2 0.3 -0.2
v -0.1 0.4 0.3
v 0.2 0.4 0.3
v 0.1 0.4 0.2
v 0.2 0.4 0.2
v -0.1 0.4 0.1
v 0.1 0.4 0.1
v 0.2 0.4 0.1
v 0.3 0.4 0.1
v -0.6 0.4 0
v -0.5 0.4 0
v 0.2 0.4 0
v 0.3 0.4 0
v 0.4 0.4 0
v -0.6 0.4 -0.1
v -0.5 0.4 -0.1
v 0.2 0.4 -0.1
v 0.3 0.4 -0.1
v 0.4 0.4 -0.1
v -0.1 0.4 -0.2
v 0.1 0.4 -0.2
v 0.2 0.4 -0.2
v 0.3 0.4 -0.2
v 0.1 0.4 -0.3
v 0.2 0.4 -0.3
v -0.1 0.4 -0.4
v 0.2 0.4 -0.4
v 0.1 0.7 0
v 0.2 0.7 0
v 0.1 0.7 -0.1
v 0.2 0.7 -0.1
v -5.96046e-08 0.1 0
v 0.1 0.1 0
v -5.96046e-08 0.1 -0.1
v 0.1 0.1 -0.1
v -0.6 0.3 0
v -0.5 0.3 0
v -0.6 0.3 -0.1
v -0.5 0.3 -0.1
v -0.1 0.5 0.3
v 0.2 0.5 0.3
v 0.1 0.5 0.2
v 0.2 0.5 0.2
v -0.6 0.5 0.1
v -0.5 0.5 0.1
v -0.1 0.5 0.1
v 0.1 0.5 0.1
v 0.2 0.5 0.1
v 0.3 0.5 0.1
v 0.2 0.5 0
v 0.3 0.5 0
v 0.4 0.5 0
v 0.2 0.5 -0.1
v 0.3 0.5 -0.1
v 0.4 0.5 -0.1
v -0.6 0.5 -0.2
v -0.5 0.5 -0.2
v -0.1 0.5 -0.2
v 0.1 0.5 -0.2
v 0.2 0.5 -0.2
v 0.3 0.5 -0.2
v 0.1 0.5 -0.3
v 0.2 0.5 -0.3
v -0.1 0.5 -0.4
v 0.2 0.5 -0.4
v -0.5 0.6 0.1
v -0.3 0.6 0.1
v -5.96046e-08 0.6 0.1
v 0.2 0.6 0.1
v -5.96046e-08 0.6 0
v 0.1 0.6 0
v 0.2 0.6 0
v 0.3 0.6 0
v 0.4 0.6 0
v 0.5 0.6 0
v -5.96046e-08 0.6 -0.1
v 0.1 0.6 -0.1
v 0.2 0.6 -0.1
v 0.3 0.6 -0.1
v 0.4 0.6 -0.1
v 0.5 0.6 -0.1
v -0.5 0.6 -0.2
v -0.3 0.6 -0.2
v -5.96046e-08 0.6 -0.2
v 0.2 0.6 -0.2
v -0.3 0.7 0.1
v -5.96046e-08 0.7 0.1
v -0.2 0.7 0
v -5.96046e-08 0.7 0
v 0.5 0.7 0
v 0.6 0.7 0
v -0.2 0.7 -0.1
v -5.96046e-08 0.7 -0.1
v 0.5 0.7 -0.1
v 0.6 0.7 -0.1
v -0.3 0.7 -0.2
v -5.96046e-08 0.7 -0.2
v -0.2 0.8 0
v 0.2 0.8 0
v -0.2 0.8 -0.1
v 0.2 0.8 -0.1

# faces
f 3/1/1 2/1/1 1/1/1
f 4/1/1 2/1/1 3/1/1
f 5/1/1 3/1/1 1/1/1
f 6/1/1 2/1/1 4/1/1
f 7/1/1 5/1/1 1/1/1
f 7/1/1 6/1/1 5/1/1
f 8/1/1 2/1/1 6/1/1
f 8/1/1 6/1/1 7/1/1
f 11/2/1 10/2/1 9/2/1
f 12/2/1 10/2/1 11/2/1
f 15/2/1 14/2/1 13/2/1
f 16/2/1 14/2/1 15/2/1
f 19/1/1 18/1/1 17/1/1
f 20/1/1 18/1/1 19/1/1
f 23/2/1 22/2/1 21/2/1
f 24/2/1 22/2/1 23/2/1
f 27/1/1 26/1/1 25/1/1
f 28/1/1 26/1/1 27/1/1
f 31/1/1 30/1/1 29/1/1
f 32/1/1 30/1/1 31/1/1
f 37/1/1 34/1/1 33/1/1
f 38/1/1 34/1/1 37/1/1
f 39/1/1 36/1/1 35/1/1
f 40/1/1 36/1/1 39/1/1
f 43/2/1 42/2/1 41/2/1
f 44/2/1 42/2/1 43/2/1
f 47/2/1 46/2/1 45/2/1
f 48/2/1 46/2/1 47/2/1
f 51/2/1 50/2/1 49/2/1
f 52/2/1 50/2/1 51/2/1
f 55/2/1 54/2/1 53/2/1
f 56/2/1 54/2/1 55/2/1
f 57/1/2 58/1/2 59/1/2
f 59/1/2 58/1/2 60/1/2
f 61/2/2 62/2/2 65/2/2
f 65/2/2 62/2/2 66/2/2
f 63/2/2 64/2/2 67/2/2
f 67/2/2 64/2/2 68/2/2
f 69/1/2 70/1/2 71/1/2
f 71/1/2 70/1/2 72/1/2
f 73/2/2 74/2/2 77/2/2
f 77/2/2 74/2/2 78/2/2
f 75/2/2 76/2/2 79/2/2
f 79/2/2 76/2/2 80/2/2
f 81/1/2 82/1/2 85/1/2
f 85/1/2 82/1/2 86/1/2
f 83/1/2 84/1/2 87/1/2
f 87/1/2 84/1/2 88/1/2
f 89/1/2 90/1/2 91/1/2
f 91/1/2 90/1/2 92/1/2
f 93/2/2 94/2/2 96/2/2
f 96/2/2 94/2/2 97/2/2
f 95/2/2 96/2/2 101/2/2
f 101/2/2 96/2/2 102/2/2
f 97/2/2 98/2/2 103/2/2
f 103/2/2 98/2/2 104/2/2
f 99/1/2 100/1/2 107/1/2
f 107/1/2 100/1/2 108/1/2
f 105/1/2 106/1/2 113/1/2
f 113/1/2 106/1/2 114/1/2
f 109/2/2 110/2/2 115/2/2
f 115/2/2 110/2/2 116/2/2
f 111/2/2 112/2/2 117/2/2
f 117/2/2 112/2/2 118/2/2
f 119/1/2 120/1/2 121/1/2
f 121/1/2 120/1/2 122/1/2
f 123/2/2 124/2/2 126/2/2
f 126/2/2 124/2/2 127/2/2
f 125/2/2 126/2/2 129/2/2
f 129/2/2 126/2/2 130/2/2
f 127/2/2 128/2/2 131/2/2
f 131/2/2 128/2/2 132/2/2
f 130/2/2 131/2/2 133/2/2
f 133/2/2 131/2/2 134/2/2
f 135/2/2 136/2/2 137/2/2
f 137/2/2 136/2/2 138/2/2
f 141/1/3 140/1/3 139/1/3
f 142/1/3 140/1/3 141/1/3
f 145/1/3 144/1/3 143/1/3
f 146/1/3 144/1/3 145/1/3
f 148/2/3 146/2/3 145/2/3
f 148/2/3 147/2/3 146/2/3
f 149/2/3 147/2/3 148/2/3
f 150/2/3 147/2/3 149/2/3
f 151/3/3 149/3/3 148/3/3
f 151/4/3 150/4/3 149/4/3
f 152/2/3 147/2/3 150/2/3
f 152/4/3 150/4/3 151/4/3
f 153/2/3 147/2/3 152/2/3
f 155/2/3 148/2/3 145/2/3
f 155/3/3 151/3/3 148/3/3
f 155/3/3 152/3/3 151/3/3
f 156/2/3 154/2/3 153/2/3
f 156/3/3 152/3/3 155/3/3
f 156/2/3 153/2/3 152/2/3
f 157/2/3 156/2/3 155/2/3
f 158/2/3 154/2/3 156/2/3
f 158/2/3 156/2/3 157/2/3
f 159/2/3 154/2/3 158/2/3
f 160/2/3 154/2/3 159/2/3
f 161/2/3 155/2/3 145/2/3
f 161/2/3 157/2/3 155/2/3
f 162/2/3 157/2/3 161/2/3
f 163/2/3 157/2/3 162/2/3
f 164/2/3 159/2/3 158/2/3
f 165/2/3 163/2/3 162/2/3
f 165/2/3 164/2/3 163/2/3
f 166/2/3 164/2/3 165/2/3
f 167/2/3 159/2/3 164/2/3
f 167/2/3 164/2/3 166/2/3
f 168/2/3 159/2/3 167/2/3
f 169/2/3 167/2/3 166/2/3
f 170/2/3 167/2/3 169/2/3
f 174/1/3 172/1/3 171/1/3
f 177/1/3 172/1/3 174/1/3
f 177/1/3 174/1/3 173/1/3
f 178/1/3 172/1/3 177/1/3
f 180/1/3 176/1/3 175/1/3
f 181/1/3 177/1/3 173/1/3
f 182/1/3 177/1/3 181/1/3
f 185/1/3 180/1/3 179/1/3
f 186/1/3 176/1/3 180/1/3
f 186/1/3 180/1/3 185/1/3
f 187/2/3 184/2/3 183/2/3
f 188/2/3 184/2/3 187/2/3
f 192/1/3 176/1/3 186/1/3
f 193/1/3 176/1/3 192/1/3
f 194/2/3 189/2/3 188/2/3
f 195/2/3 189/2/3 194/2/3
f 196/2/3 191/2/3 190/2/3
f 197/2/3 191/2/3 196/2/3
f 199/2/3 196/2/3 195/2/3
f 200/2/3 196/2/3 199/2/3
f 203/2/3 199/2/3 198/2/3
f 203/2/3 201/2/3 200/2/3
f 203/2/3 200/2/3 199/2/3
f 204/2/3 201/2/3 203/2/3
f 206/2/3 204/2/3 203/2/3
f 206/2/3 205/2/3 204/2/3
f 206/2/3 203/2/3 202/2/3
f 207/2/3 205/2/3 206/2/3
f 210/1/3 209/1/3 208/1/3
f 211/1/3 209/1/3 210/1/3
f 214/1/3 213/1/3 212/1/3
f 215/1/3 213/1/3 214/1/3
f 216/1/4 217/1/4 218/1/4
f 218/1/4 217/1/4 219/1/4
f 220/1/4 221/1/4 222/1/4
f 222/1/4 221/1/4 223/1/4
f 224/1/4 225/1/4 227/1/4
f 227/1/4 225/1/4 230/1/4
f 226/1/4 227/1/4 230/1/4
f 230/1/4 225/1/4 231/1/4
f 228/1/4 229/1/4 233/1/4
f 226/1/4 230/1/4 234/1/4
f 234/1/4 230/1/4 235/1/4
f 232/1/4 233/1/4 238/1/4
f 233/1/4 229/1/4 239/1/4
f 238/1/4 233/1/4 239/1/4
f 236/2/4 237/2/4 240/2/4
f 240/2/4 237/2/4 241/2/4
f 239/1/4 229/1/4 245/1/4
f 245/1/4 229/1/4 246/1/4
f 241/2/4 242/2/4 247/2/4
f 247/2/4 242/2/4 248/2/4
f 243/2/4 244/2/4 249/2/4
f 249/2/4 244/2/4 250/2/4
f 248/2/4 249/2/4 252/2/4
f 252/2/4 249/2/4 253/2/4
f 251/2/4 252/2/4 256/2/4
f 253/2/4 254/2/4 256/2/4
f 252/2/4 253/2/4 256/2/4
f 256/2/4 254/2/4 257/2/4
f 256/2/4 257/2/4 259/2/4
f 257/2/4 258/2/4 259/2/4
f 255/2/4 256/2/4 259/2/4
f 259/2/4 258/2/4 260/2/4
f 261/1/4 262/1/4 263/1/4
f 263/1/4 262/1/4 264/1/4
f 263/2/4 264/2/4 266/2/4
f 264/2/4 265/2/4 266/2/4
f 266/2/4 265/2/4 267/2/4
f 267/2/4 265/2/4 268/2/4
f 266/3/4 267/3/4 269/3/4
f 267/4/4 268/4/4 269/4/4
f 268/2/4 265/2/4 270/2/4
f 269/4/4 268/4/4 270/4/4
f 270/2/4 265/2/4 271/2/4
f 263/2/4 266/2/4 273/2/4
f 266/3/4 269/3/4 273/3/4
f 269/3/4 270/3/4 273/3/4
f 271/2/4 272/2/4 274/2/4
f 273/3/4 270/3/4 274/3/4
f 270/2/4 271/2/4 274/2/4
f 273/2/4 274/2/4 275/2/4
f 274/2/4 272/2/4 276/2/4
f 275/2/4 274/2/4 276/2/4
f 276/2/4 272/2/4 277/2/4
f 277/2/4 272/2/4 278/2/4
f 263/2/4 273/2/4 279/2/4
f 273/2/4 275/2/4 279/2/4
f 279/2/4 275/2/4 280/2/4
f 280/2/4 275/2/4 281/2/4
f 276/2/4 277/2/4 282/2/4
f 280/2/4 281/2/4 283/2/4
f 281/2/4 282/2/4 283/2/4
f 283/2/4 282/2/4 284/2/4
f 282/2/4 277/2/4 285/2/4
f 284/2/4 282/2/4 285/2/4
f 285/2/4 277/2/4 286/2/4
f 284/2/4 285/2/4 287/2/4
f 287/2/4 285/2/4 288/2/4
f 289/1/4 290/1/4 291/1/4
f 291/1/4 290/1/4 292/1/4
f 295/1/5 294/1/5 293/1/5
f 296/1/5 294/1/5 295/1/5
f 299/1/5 298/1/5 297/1/5
f 300/1/5 298/1/5 299/1/5
f 304/2/5 303/2/5 302/2/5
f 305/2/5 303/2/5 304/2/5
f 306/2/5 303/2/5 305/2/5
f 310/2/5 304/2/5 302/2/5
f 311/2/5 307/2/5 306/2/5
f 311/2/5 306/2/5 305/2/5
f 312/2/5 307/2/5 311/2/5
f 313/2/5 307/2/5 312/2/5
f 314/2/5 309/2/5 308/2/5
f 315/2/5 309/2/5 314/2/5
f 316/1/5 302/1/5 301/1/5
f 317/2/5 310/2/5 302/2/5
f 317/1/5 302/1/5 316/1/5
f 317/2/5 311/2/5 310/2/5
f 317/2/5 312/2/5 311/2/5
f 318/2/5 312/2/5 317/2/5
f 321/2/5 320/2/5 319/2/5
f 322/2/5 320/2/5 321/2/5
f 327/2/5 323/2/5 322/2/5
f 328/2/5 323/2/5 327/2/5
f 329/2/5 325/2/5 324/2/5
f 330/2/5 325/2/5 329/2/5
f 331/2/5 327/2/5 326/2/5
f 332/2/5 327/2/5 331/2/5
f 335/1/5 334/1/5 333/1/5
f 336/1/5 334/1/5 335/1/5
f 337/1/5 335/1/5 333/1/5
f 338/1/5 335/1/5 337/1/5
f 343/2/5 340/2/5 339/2/5
f 344/2/5 340/2/5 343/2/5
f 346/1/5 342/1/5 341/1/5
f 347/1/5 342/1/5 346/1/5
f 349/2/5 345/2/5 344/2/5
f 350/2/5 345/2/5 349/2/5
f 353/2/5 349/2/5 348/2/5
f 354/2/5 349/2/5 353/2/5
f 355/1/5 352/1/5 351/1/5
f 357/1/5 355/1/5 351/1/5
f 357/1/5 356/1/5 355/1/5
f 358/1/5 356/1/5 357/1/5
f 361/1/5 360/1/5 359/1/5
f 362/1/5 360/1/5 361/1/5
f 363/1/6 364/1/6 365/1/6
f 365/1/6 364/1/6 366/1/6
f 367/1/6 368/1/6 369/1/6
f 369/1/6 368/1/6 370/1/6
f 371/1/6 372/1/6 373/1/6
f 373/1/6 372/1/6 374/1/6
f 371/1/6 373/1/6 377/1/6
f 377/1/6 373/1/6 378/1/6
f 379/2/6 380/2/6 381/2/6
f 381/2/6 380/2/6 382/2/6
f 382/2/6 383/2/6 385/2/6
f 385/2/6 383/2/6 386/2/6
f 375/1/6 376/1/6 387/1/6
f 387/1/6 376/1/6 388/1/6
f 384/2/6 385/2/6 391/2/6
f 391/2/6 385/2/6 392/2/6
f 389/1/6 390/1/6 393/1/6
f 389/1/6 393/1/6 395/1/6
f 393/1/6 394/1/6 395/1/6
f 395/1/6 394/1/6 396/1/6
f 399/2/6 400/2/6 401/2/6
f 401/2/6 400/2/6 402/2/6
f 402/2/6 400/2/6 403/2/6
f 402/2/6 403/2/6 408/2/6
f 403/2/6 404/2/6 408/2/6
f 408/2/6 404/2/6 409/2/6
f 409/2/6 404/2/6 410/2/6
f 405/2/6 406/2/6 411/2/6
f 411/2/6 406/2/6 412/2/6
f 397/2/6 398/2/6 413/2/6
f 413/2/6 398/2/6 414/2/6
f 407/2/6 408/2/6 415/2/6
f 408/2/6 409/2/6 415/2/6
f 415/2/6 409/2/6 416/2/6
f 417/2/6 418/2/6 419/2/6
f 419/2/6 418/2/6 420/2/6
f 417/2/6 419/2/6 423/2/6
f 421/2/6 422/2/6 425/2/6
f 425/2/6 422/2/6 426/2/6
f 423/2/6 424/2/6 427/2/6
f 417/2/6 423/2/6 427/2/6
f 427/2/6 424/2/6 428/2/6
f 429/1/6 430/1/6 431/1/6
f 431/1/6 430/1/6 432/1/6
